<svg width="710" height="187" viewBox="0 0 710 187" fill="none" xmlns="http://www.w3.org/2000/svg">
<path d="M3.12195 17.7969H0.463257L5.30396 4.04687H8.37891L13.2263 17.7969H10.5676L6.89514 6.8667H6.78772L3.12195 17.7969ZM3.20923 12.4056H10.4602V14.4064H3.20923V12.4056ZM17.3604 11.7544V17.7969H14.93V7.48437H17.253V9.23669H17.3738C17.611 8.6593 17.9892 8.20052 18.5085 7.86035C19.0321 7.52018 19.6789 7.3501 20.4488 7.3501C21.1604 7.3501 21.7803 7.50228 22.3085 7.80664C22.8411 8.111 23.2529 8.55188 23.5439 9.12927C23.8393 9.70666 23.9847 10.4071 23.9803 11.2307V17.7969H21.5498V11.6067C21.5498 10.9174 21.3708 10.3781 21.0127 9.98865C20.6591 9.59924 20.169 9.40454 19.5424 9.40454C19.1172 9.40454 18.739 9.49853 18.4077 9.68652C18.081 9.87004 17.8236 10.1364 17.6357 10.4855C17.4521 10.8346 17.3604 11.2576 17.3604 11.7544ZM29.4185 18.005C28.765 18.005 28.1764 17.8886 27.6527 17.6559C27.1335 17.4187 26.7218 17.0695 26.4174 16.6085C26.1175 16.1475 25.9676 15.5791 25.9676 14.9032C25.9676 14.3213 26.075 13.8402 26.2898 13.4597C26.5047 13.0793 26.7978 12.7749 27.1693 12.5466C27.5408 12.3184 27.9593 12.146 28.4248 12.0297C28.8948 11.9088 29.3804 11.8215 29.8817 11.7678C30.486 11.7052 30.9761 11.6492 31.3521 11.6C31.7281 11.5463 32.0011 11.4657 32.1712 11.3583C32.3457 11.2464 32.433 11.0741 32.433 10.8413V10.801C32.433 10.2952 32.2831 9.90361 31.9832 9.6261C31.6833 9.34859 31.2514 9.20984 30.6874 9.20984C30.0921 9.20984 29.6199 9.33964 29.2708 9.59924C28.9261 9.85885 28.6934 10.1654 28.5725 10.519L26.3033 10.1968C26.4823 9.57015 26.7777 9.04647 27.1895 8.62573C27.6013 8.20052 28.1048 7.88273 28.7001 7.67236C29.2954 7.45752 29.9534 7.3501 30.674 7.3501C31.1708 7.3501 31.6654 7.40828 32.1577 7.52466C32.6501 7.64103 33.0999 7.8335 33.5072 8.10205C33.9145 8.36613 34.2413 8.72644 34.4875 9.18298C34.7381 9.63953 34.8634 10.2102 34.8634 10.895V17.7969H32.527V16.3802H32.4464C32.2987 16.6667 32.0906 16.9353 31.8221 17.1859C31.558 17.4321 31.2245 17.6313 30.8217 17.7834C30.4233 17.9312 29.9556 18.005 29.4185 18.005ZM30.0496 16.2191C30.5375 16.2191 30.9604 16.1229 31.3185 15.9304C31.6766 15.7335 31.9519 15.4739 32.1443 15.1516C32.3413 14.8293 32.4397 14.478 32.4397 14.0975V12.8823C32.3636 12.945 32.2338 13.0032 32.0503 13.0569C31.8713 13.1106 31.6699 13.1576 31.4461 13.1979C31.2223 13.2382 31.0007 13.274 30.7814 13.3053C30.5621 13.3366 30.3719 13.3635 30.2107 13.3859C29.8482 13.4351 29.5237 13.5157 29.2372 13.6276C28.9508 13.7395 28.7247 13.8961 28.5591 14.0975C28.3935 14.2945 28.3107 14.5496 28.3107 14.8629C28.3107 15.3105 28.4741 15.6484 28.8008 15.8767C29.1276 16.105 29.5438 16.2191 30.0496 16.2191ZM39.7377 4.04687V17.7969H37.3073V4.04687H39.7377ZM43.7476 21.6641C43.4163 21.6641 43.1097 21.6372 42.8278 21.5835C42.5503 21.5343 42.3287 21.4761 42.1631 21.4089L42.7271 19.5156C43.0806 19.6186 43.3962 19.6678 43.6737 19.6633C43.9512 19.6589 44.1951 19.5716 44.4055 19.4015C44.6204 19.2359 44.8016 18.9584 44.9493 18.569L45.1575 18.0117L41.4178 7.48437H43.996L46.3727 15.2725H46.4801L48.8635 7.48437H51.4484L47.3193 19.0457C47.1269 19.5917 46.8717 20.0594 46.554 20.4489C46.2362 20.8427 45.8468 21.1426 45.3857 21.3485C44.9292 21.5589 44.3831 21.6641 43.7476 21.6641ZM61.2808 10.2102L59.0652 10.4519C59.0026 10.2281 58.8929 10.0177 58.7363 9.8208C58.5841 9.62386 58.3782 9.46497 58.1186 9.34412C57.859 9.22327 57.5412 9.16284 57.1652 9.16284C56.6594 9.16284 56.2342 9.2725 55.8896 9.49182C55.5494 9.71114 55.3816 9.99536 55.386 10.3445C55.3816 10.6444 55.4912 10.8883 55.715 11.0763C55.9433 11.2643 56.3193 11.4187 56.843 11.5396L58.602 11.9155C59.5777 12.1259 60.3028 12.4594 60.7773 12.9159C61.2562 13.3724 61.4979 13.97 61.5024 14.7085C61.4979 15.3575 61.3077 15.9304 60.9317 16.4272C60.5602 16.9196 60.0432 17.3045 59.3808 17.582C58.7184 17.8595 57.9575 17.9983 57.0981 17.9983C55.8359 17.9983 54.8198 17.7342 54.05 17.2061C53.2801 16.6734 52.8214 15.9327 52.6736 14.9838L55.0436 14.7555C55.1511 15.221 55.3793 15.5723 55.7285 15.8096C56.0776 16.0468 56.5319 16.1654 57.0914 16.1654C57.6688 16.1654 58.132 16.0468 58.4811 15.8096C58.8347 15.5723 59.0115 15.2792 59.0115 14.9301C59.0115 14.6346 58.8974 14.3907 58.6691 14.1982C58.4453 14.0058 58.0962 13.8581 57.6218 13.7551L55.8627 13.3859C54.8736 13.18 54.1417 12.8331 53.6673 12.3452C53.1929 11.8529 52.9579 11.2307 52.9623 10.4788C52.9579 9.84318 53.1302 9.29264 53.4793 8.82715C53.8329 8.35718 54.323 7.99463 54.9496 7.7395C55.5807 7.4799 56.3081 7.3501 57.1317 7.3501C58.3401 7.3501 59.2913 7.60746 59.985 8.12219C60.6833 8.63692 61.1152 9.33293 61.2808 10.2102ZM68.656 7.48437V9.36426H62.7277V7.48437H68.656ZM64.1913 5.01367H66.6217V14.6951C66.6217 15.0218 66.6709 15.2725 66.7694 15.447C66.8724 15.6171 67.0066 15.7335 67.1722 15.7961C67.3379 15.8588 67.5214 15.8901 67.7228 15.8901C67.875 15.8901 68.0137 15.8789 68.139 15.8566C68.2688 15.8342 68.3673 15.814 68.4344 15.7961L68.844 17.6962C68.7142 17.7409 68.5284 17.7902 68.2867 17.8439C68.0495 17.8976 67.7586 17.9289 67.4139 17.9379C66.8052 17.9558 66.2569 17.864 65.769 17.6626C65.2812 17.4567 64.894 17.1389 64.6075 16.7092C64.3256 16.2795 64.1868 15.7424 64.1913 15.0979V5.01367ZM75.4857 17.7969V4.04687H84.4286V6.13489H77.9765V9.8678H83.9653V11.9558H77.9765V15.7089H84.4823V17.7969H75.4857ZM95.013 10.2102L92.7974 10.4519C92.7347 10.2281 92.6251 10.0177 92.4684 9.8208C92.3162 9.62386 92.1103 9.46497 91.8507 9.34412C91.5911 9.22327 91.2733 9.16284 90.8974 9.16284C90.3916 9.16284 89.9664 9.2725 89.6217 9.49182C89.2816 9.71114 89.1137 9.99536 89.1182 10.3445C89.1137 10.6444 89.2234 10.8883 89.4472 11.0763C89.6754 11.2643 90.0514 11.4187 90.5751 11.5396L92.3341 11.9155C93.3099 12.1259 94.035 12.4594 94.5094 12.9159C94.9884 13.3724 95.2301 13.97 95.2345 14.7085C95.2301 15.3575 95.0398 15.9304 94.6638 16.4272C94.2923 16.9196 93.7754 17.3045 93.1129 17.582C92.4505 17.8595 91.6896 17.9983 90.8302 17.9983C89.568 17.9983 88.552 17.7342 87.7821 17.2061C87.0123 16.6734 86.5535 15.9327 86.4058 14.9838L88.7758 14.7555C88.8832 15.221 89.1115 15.5723 89.4606 15.8096C89.8097 16.0468 90.264 16.1654 90.8235 16.1654C91.4009 16.1654 91.8642 16.0468 92.2133 15.8096C92.5669 15.5723 92.7437 15.2792 92.7437 14.9301C92.7437 14.6346 92.6295 14.3907 92.4013 14.1982C92.1775 14.0058 91.8284 13.8581 91.3539 13.7551L89.5949 13.3859C88.6057 13.18 87.8739 12.8331 87.3994 12.3452C86.925 11.8529 86.69 11.2307 86.6945 10.4788C86.69 9.84318 86.8623 9.29264 87.2115 8.82715C87.5651 8.35718 88.0552 7.99463 88.6818 7.7395C89.3129 7.4799 90.0402 7.3501 90.8638 7.3501C92.0723 7.3501 93.0234 7.60746 93.7172 8.12219C94.4154 8.63692 94.8474 9.33293 95.013 10.2102ZM102.388 7.48437V9.36426H96.4598V7.48437H102.388ZM97.9234 5.01367H100.354V14.6951C100.354 15.0218 100.403 15.2725 100.502 15.447C100.605 15.6171 100.739 15.7335 100.904 15.7961C101.07 15.8588 101.254 15.8901 101.455 15.8901C101.607 15.8901 101.746 15.8789 101.871 15.8566C102.001 15.8342 102.099 15.814 102.167 15.7961L102.576 17.6962C102.446 17.7409 102.261 17.7902 102.019 17.8439C101.782 17.8976 101.491 17.9289 101.146 17.9379C100.537 17.9558 99.9891 17.864 99.5012 17.6626C99.0133 17.4567 98.6261 17.1389 98.3397 16.7092C98.0577 16.2795 97.919 15.7424 97.9234 15.0979V5.01367ZM104.421 17.7969V7.48437H106.851V17.7969H104.421ZM105.643 6.02075C105.258 6.02075 104.927 5.89319 104.649 5.63806C104.372 5.37846 104.233 5.06738 104.233 4.70483C104.233 4.33781 104.372 4.02673 104.649 3.77161C104.927 3.512 105.258 3.3822 105.643 3.3822C106.032 3.3822 106.363 3.512 106.636 3.77161C106.914 4.02673 107.053 4.33781 107.053 4.70483C107.053 5.06738 106.914 5.37846 106.636 5.63806C106.363 5.89319 106.032 6.02075 105.643 6.02075ZM109.35 17.7969V7.48437H111.673V9.23669H111.794C112.009 8.64587 112.365 8.18485 112.862 7.85364C113.359 7.51794 113.952 7.3501 114.641 7.3501C115.339 7.3501 115.928 7.52018 116.407 7.86035C116.89 8.19604 117.23 8.65483 117.427 9.23669H117.535C117.763 8.66378 118.148 8.20723 118.689 7.86707C119.235 7.52242 119.882 7.3501 120.63 7.3501C121.579 7.3501 122.353 7.64998 122.953 8.24976C123.553 8.84953 123.852 9.72457 123.852 10.8749V17.7969H121.415V11.2509C121.415 10.6108 121.245 10.1431 120.905 9.84766C120.565 9.54777 120.149 9.39783 119.656 9.39783C119.07 9.39783 118.611 9.58134 118.28 9.94836C117.953 10.3109 117.79 10.7831 117.79 11.365V17.7969H115.406V11.1501C115.406 10.6175 115.245 10.1923 114.923 9.87451C114.605 9.55672 114.189 9.39783 113.674 9.39783C113.325 9.39783 113.007 9.48734 112.721 9.66638C112.434 9.84094 112.206 10.0894 112.036 10.4116C111.866 10.7294 111.781 11.1009 111.781 11.5261V17.7969H109.35ZM129.286 18.005C128.632 18.005 128.044 17.8886 127.52 17.6559C127.001 17.4187 126.589 17.0695 126.284 16.6085C125.985 16.1475 125.835 15.5791 125.835 14.9032C125.835 14.3213 125.942 13.8402 126.157 13.4597C126.372 13.0793 126.665 12.7749 127.036 12.5466C127.408 12.3184 127.826 12.146 128.292 12.0297C128.762 11.9088 129.248 11.8215 129.749 11.7678C130.353 11.7052 130.843 11.6492 131.219 11.6C131.595 11.5463 131.868 11.4657 132.038 11.3583C132.213 11.2464 132.3 11.0741 132.3 10.8413V10.801C132.3 10.2952 132.15 9.90361 131.85 9.6261C131.55 9.34859 131.118 9.20984 130.555 9.20984C129.959 9.20984 129.487 9.33964 129.138 9.59924C128.793 9.85885 128.56 10.1654 128.44 10.519L126.17 10.1968C126.349 9.57015 126.645 9.04647 127.057 8.62573C127.468 8.20052 127.972 7.88273 128.567 7.67236C129.162 7.45752 129.82 7.3501 130.541 7.3501C131.038 7.3501 131.532 7.40828 132.025 7.52466C132.517 7.64103 132.967 7.8335 133.374 8.10205C133.782 8.36613 134.108 8.72644 134.355 9.18298C134.605 9.63953 134.731 10.2102 134.731 10.895V17.7969H132.394V16.3802H132.314C132.166 16.6667 131.958 16.9353 131.689 17.1859C131.425 17.4321 131.092 17.6313 130.689 17.7834C130.29 17.9312 129.823 18.005 129.286 18.005ZM129.917 16.2191C130.405 16.2191 130.828 16.1229 131.186 15.9304C131.544 15.7335 131.819 15.4739 132.011 15.1516C132.208 14.8293 132.307 14.478 132.307 14.0975V12.8823C132.231 12.945 132.101 13.0032 131.917 13.0569C131.738 13.1106 131.537 13.1576 131.313 13.1979C131.089 13.2382 130.868 13.274 130.648 13.3053C130.429 13.3366 130.239 13.3635 130.078 13.3859C129.715 13.4351 129.391 13.5157 129.104 13.6276C128.818 13.7395 128.592 13.8961 128.426 14.0975C128.261 14.2945 128.178 14.5496 128.178 14.8629C128.178 15.3105 128.341 15.6484 128.668 15.8767C128.995 16.105 129.411 16.2191 129.917 16.2191ZM142.324 7.48437V9.36426H136.396V7.48437H142.324ZM137.859 5.01367H140.29V14.6951C140.29 15.0218 140.339 15.2725 140.437 15.447C140.54 15.6171 140.675 15.7335 140.84 15.7961C141.006 15.8588 141.189 15.8901 141.391 15.8901C141.543 15.8901 141.682 15.8789 141.807 15.8566C141.937 15.8342 142.035 15.814 142.102 15.7961L142.512 17.6962C142.382 17.7409 142.196 17.7902 141.955 17.8439C141.717 17.8976 141.426 17.9289 141.082 17.9379C140.473 17.9558 139.925 17.864 139.437 17.6626C138.949 17.4567 138.562 17.1389 138.275 16.7092C137.993 16.2795 137.855 15.7424 137.859 15.0979V5.01367ZM148.811 17.9983C147.777 17.9983 146.884 17.7834 146.132 17.3538C145.385 16.9196 144.81 16.3064 144.407 15.5142C144.004 14.7174 143.803 13.7797 143.803 12.701C143.803 11.6403 144.004 10.7093 144.407 9.90808C144.814 9.10242 145.383 8.47579 146.112 8.0282C146.842 7.57613 147.699 7.3501 148.684 7.3501C149.319 7.3501 149.919 7.45304 150.483 7.65893C151.051 7.86035 151.553 8.17367 151.987 8.59888C152.425 9.02409 152.77 9.56567 153.021 10.2236C153.271 10.8771 153.397 11.6559 153.397 12.5601V13.3053H144.944V11.6671H151.067C151.063 11.2016 150.962 10.7876 150.765 10.425C150.568 10.058 150.293 9.76933 149.939 9.55896C149.59 9.34859 149.183 9.24341 148.717 9.24341C148.22 9.24341 147.784 9.36426 147.408 9.60596C147.032 9.84318 146.739 10.1565 146.528 10.5459C146.323 10.9308 146.217 11.3538 146.213 11.8148V13.2449C146.213 13.8446 146.323 14.3594 146.542 14.7891C146.761 15.2143 147.068 15.541 147.462 15.7693C147.856 15.9931 148.317 16.105 148.845 16.105C149.198 16.105 149.518 16.0557 149.805 15.9573C150.091 15.8543 150.34 15.7044 150.55 15.5074C150.76 15.3105 150.919 15.0666 151.027 14.7756L153.296 15.0308C153.153 15.6305 152.88 16.1542 152.477 16.6018C152.079 17.0449 151.568 17.3896 150.946 17.6357C150.324 17.8774 149.612 17.9983 148.811 17.9983ZM163.604 10.2102L161.388 10.4519C161.325 10.2281 161.216 10.0177 161.059 9.8208C160.907 9.62386 160.701 9.46497 160.441 9.34412C160.182 9.22327 159.864 9.16284 159.488 9.16284C158.982 9.16284 158.557 9.2725 158.212 9.49182C157.872 9.71114 157.704 9.99536 157.709 10.3445C157.704 10.6444 157.814 10.8883 158.038 11.0763C158.266 11.2643 158.642 11.4187 159.166 11.5396L160.925 11.9155C161.9 12.1259 162.626 12.4594 163.1 12.9159C163.579 13.3724 163.821 13.97 163.825 14.7085C163.821 15.3575 163.63 15.9304 163.254 16.4272C162.883 16.9196 162.366 17.3045 161.703 17.582C161.041 17.8595 160.28 17.9983 159.421 17.9983C158.159 17.9983 157.143 17.7342 156.373 17.2061C155.603 16.6734 155.144 15.9327 154.996 14.9838L157.366 14.7555C157.474 15.221 157.702 15.5723 158.051 15.8096C158.4 16.0468 158.855 16.1654 159.414 16.1654C159.991 16.1654 160.455 16.0468 160.804 15.8096C161.157 15.5723 161.334 15.2792 161.334 14.9301C161.334 14.6346 161.22 14.3907 160.992 14.1982C160.768 14.0058 160.419 13.8581 159.944 13.7551L158.185 13.3859C157.196 13.18 156.464 12.8331 155.99 12.3452C155.516 11.8529 155.281 11.2307 155.285 10.4788C155.281 9.84318 155.453 9.29264 155.802 8.82715C156.156 8.35718 156.646 7.99463 157.272 7.7395C157.903 7.4799 158.631 7.3501 159.454 7.3501C160.663 7.3501 161.614 7.60746 162.308 8.12219C163.006 8.63692 163.438 9.33293 163.604 10.2102Z" fill="#44475B"/>
<g clip-path="url(#clip0_1_768)">
<path d="M181.04 2.4635C176.44 2.4635 172.707 6.19683 172.707 10.7968C172.707 15.3968 176.44 19.1302 181.04 19.1302C185.64 19.1302 189.373 15.3968 189.373 10.7968C189.373 6.19683 185.64 2.4635 181.04 2.4635ZM181.873 14.9635H180.207V9.9635H181.873V14.9635ZM181.873 8.29683H180.207V6.63017H181.873V8.29683Z" fill="#7C7E8C"/>
</g>
<path d="M166.058 71.7969V60.8878H170.054C170.828 60.8878 171.469 61.0156 171.976 61.2713C172.484 61.5234 172.864 61.8661 173.116 62.2994C173.369 62.729 173.495 63.2138 173.495 63.7536C173.495 64.2081 173.411 64.5916 173.244 64.9041C173.077 65.2131 172.854 65.4616 172.573 65.6499C172.296 65.8345 171.991 65.9695 171.657 66.0547V66.1612C172.019 66.179 172.372 66.2962 172.717 66.5128C173.065 66.7259 173.353 67.0295 173.58 67.4237C173.807 67.8178 173.921 68.2972 173.921 68.8619C173.921 69.4194 173.789 69.9201 173.527 70.364C173.267 70.8043 172.866 71.1541 172.323 71.4134C171.779 71.669 171.085 71.7969 170.24 71.7969H166.058ZM167.704 70.3853H170.08C170.869 70.3853 171.433 70.2326 171.774 69.9272C172.115 69.6218 172.285 69.2401 172.285 68.782C172.285 68.4375 172.198 68.1214 172.024 67.8338C171.85 67.5462 171.602 67.3171 171.279 67.1467C170.959 66.9762 170.579 66.891 170.139 66.891H167.704V70.3853ZM167.704 65.6072H169.91C170.279 65.6072 170.611 65.5362 170.906 65.3942C171.204 65.2521 171.44 65.0533 171.614 64.7976C171.792 64.5384 171.881 64.233 171.881 63.8814C171.881 63.4304 171.723 63.0522 171.407 62.7468C171.09 62.4414 170.606 62.2887 169.952 62.2887H167.704V65.6072ZM180.928 68.4038V63.6151H182.526V71.7969H180.96V70.38H180.875C180.687 70.8168 180.385 71.1808 179.969 71.4719C179.557 71.7596 179.044 71.9034 178.43 71.9034C177.904 71.9034 177.439 71.788 177.034 71.5572C176.633 71.3228 176.317 70.9766 176.086 70.5185C175.859 70.0604 175.745 69.494 175.745 68.8192V63.6151H177.338V68.6275C177.338 69.185 177.492 69.6289 177.801 69.9592C178.11 70.2894 178.511 70.4545 179.005 70.4545C179.303 70.4545 179.6 70.38 179.895 70.2308C180.193 70.0817 180.44 69.8562 180.635 69.5543C180.834 69.2525 180.932 68.869 180.928 68.4038ZM185.673 74.8651C185.435 74.8651 185.218 74.8455 185.023 74.8065C184.828 74.771 184.682 74.7319 184.586 74.6893L184.97 73.3842C185.261 73.4624 185.52 73.4961 185.747 73.4854C185.975 73.4748 186.175 73.3896 186.349 73.2298C186.527 73.07 186.683 72.8089 186.818 72.4467L187.015 71.9034L184.021 63.6151H185.726L187.798 69.9645H187.883L189.955 63.6151H191.665L188.293 72.8888C188.137 73.315 187.938 73.6754 187.697 73.9702C187.455 74.2685 187.168 74.4922 186.834 74.6413C186.5 74.7905 186.113 74.8651 185.673 74.8651Z" fill="#7C7E8C"/>
<rect x="218.57" y="62.7969" width="349.14" height="8" rx="2" fill="#00B386"/>
<path d="M579.056 71.7969L583.58 62.8501V62.7742H578.348V61.4332H585.199V62.8198L580.691 71.7969H579.056ZM590.355 71.9386C589.892 71.9318 589.437 71.8475 588.988 71.6855C588.543 71.5236 588.138 71.2537 587.774 70.8759C587.409 70.498 587.118 69.9903 586.898 69.3527C586.682 68.7151 586.574 67.9189 586.574 66.9642C586.574 66.0601 586.664 65.2572 586.843 64.5555C587.025 63.8538 587.286 63.2617 587.627 62.7793C587.968 62.2935 588.379 61.9241 588.862 61.6711C589.344 61.4181 589.886 61.2915 590.486 61.2915C591.104 61.2915 591.652 61.413 592.131 61.6559C592.61 61.8988 592.998 62.2345 593.295 62.6629C593.595 63.0914 593.786 63.5788 593.866 64.1254H592.323C592.218 63.6935 592.011 63.341 591.701 63.0677C591.39 62.7945 590.985 62.6578 590.486 62.6578C589.727 62.6578 589.135 62.9885 588.71 63.6497C588.288 64.3109 588.076 65.2302 588.072 66.4076H588.148C588.327 66.1141 588.546 65.8644 588.806 65.6586C589.069 65.4495 589.363 65.2892 589.687 65.1779C590.014 65.0632 590.358 65.0059 590.719 65.0059C591.319 65.0059 591.863 65.1526 592.348 65.4461C592.838 65.7362 593.227 66.1377 593.517 66.6505C593.807 67.1633 593.953 67.7503 593.953 68.4115C593.953 69.0727 593.802 69.6715 593.502 70.2079C593.205 70.7443 592.787 71.1694 592.247 71.4831C591.707 71.7935 591.077 71.9453 590.355 71.9386ZM590.35 70.6229C590.748 70.6229 591.104 70.525 591.417 70.3294C591.731 70.1337 591.979 69.8706 592.161 69.54C592.343 69.2093 592.434 68.8399 592.434 68.4317C592.434 68.0336 592.345 67.671 592.166 67.3438C591.991 67.0165 591.748 66.7567 591.438 66.5645C591.131 66.3722 590.78 66.276 590.385 66.276C590.085 66.276 589.806 66.3334 589.55 66.4481C589.297 66.5628 589.074 66.7213 588.882 66.9237C588.69 67.1262 588.538 67.3589 588.427 67.6221C588.319 67.8818 588.265 68.1568 588.265 68.4469C588.265 68.8349 588.354 69.1942 588.533 69.5248C588.715 69.8554 588.963 70.1219 589.277 70.3243C589.594 70.5233 589.951 70.6229 590.35 70.6229ZM601.205 69.8537V69.3072C601.205 68.9158 601.286 68.5582 601.448 68.2344C601.613 67.9071 601.853 67.6457 602.167 67.45C602.484 67.251 602.867 67.1515 603.315 67.1515C603.774 67.1515 604.159 67.2493 604.469 67.445C604.78 67.6406 605.014 67.9021 605.173 68.2293C605.335 68.5566 605.416 68.9158 605.416 69.3072V69.8537C605.416 70.245 605.335 70.6043 605.173 70.9316C605.011 71.2554 604.773 71.5169 604.459 71.7159C604.149 71.9116 603.768 72.0094 603.315 72.0094C602.86 72.0094 602.475 71.9116 602.162 71.7159C601.848 71.5169 601.61 71.2554 601.448 70.9316C601.286 70.6043 601.205 70.245 601.205 69.8537ZM602.384 69.3072V69.8537C602.384 70.1438 602.454 70.407 602.592 70.6431C602.73 70.8793 602.971 70.9973 603.315 70.9973C603.656 70.9973 603.894 70.8793 604.029 70.6431C604.164 70.407 604.231 70.1438 604.231 69.8537V69.3072C604.231 69.017 604.166 68.7539 604.034 68.5178C603.906 68.2816 603.666 68.1635 603.315 68.1635C602.978 68.1635 602.739 68.2816 602.597 68.5178C602.455 68.7539 602.384 69.017 602.384 69.3072ZM595.993 63.9229V63.3764C595.993 62.9851 596.074 62.6258 596.236 62.2986C596.401 61.9713 596.641 61.7099 596.955 61.5142C597.272 61.3185 597.655 61.2207 598.103 61.2207C598.562 61.2207 598.947 61.3185 599.257 61.5142C599.567 61.7099 599.802 61.9713 599.96 62.2986C600.119 62.6258 600.198 62.9851 600.198 63.3764V63.9229C600.198 64.3143 600.117 64.6736 599.955 65.0008C599.797 65.3247 599.561 65.5861 599.247 65.7852C598.937 65.9808 598.555 66.0787 598.103 66.0787C597.644 66.0787 597.258 65.9808 596.944 65.7852C596.634 65.5861 596.398 65.3247 596.236 65.0008C596.074 64.6736 595.993 64.3143 595.993 63.9229ZM597.177 63.3764V63.9229C597.177 64.2131 597.245 64.4762 597.38 64.7124C597.518 64.9485 597.759 65.0666 598.103 65.0666C598.441 65.0666 598.677 64.9485 598.812 64.7124C598.95 64.4762 599.019 64.2131 599.019 63.9229V63.3764C599.019 63.0863 598.953 62.8232 598.822 62.587C598.69 62.3509 598.451 62.2328 598.103 62.2328C597.766 62.2328 597.526 62.3509 597.385 62.587C597.246 62.8232 597.177 63.0863 597.177 63.3764ZM596.474 71.7969L603.599 61.4332H604.808L597.683 71.7969H596.474Z" fill="#7C7E8C"/>
<path d="M166.068 110.797V99.7969H167.728V104.577H173.212V99.7969H174.877V110.797H173.212V106H167.728V110.797H166.068ZM180.64 110.963C179.867 110.963 179.192 110.786 178.615 110.432C178.039 110.077 177.591 109.581 177.273 108.944C176.954 108.306 176.795 107.562 176.795 106.709C176.795 105.854 176.954 105.105 177.273 104.464C177.591 103.823 178.039 103.326 178.615 102.971C179.192 102.617 179.867 102.439 180.64 102.439C181.414 102.439 182.089 102.617 182.665 102.971C183.242 103.326 183.689 103.823 184.008 104.464C184.327 105.105 184.486 105.854 184.486 106.709C184.486 107.562 184.327 108.306 184.008 108.944C183.689 109.581 183.242 110.077 182.665 110.432C182.089 110.786 181.414 110.963 180.64 110.963ZM180.646 109.615C181.147 109.615 181.562 109.483 181.892 109.218C182.221 108.953 182.465 108.6 182.622 108.16C182.783 107.719 182.864 107.234 182.864 106.704C182.864 106.178 182.783 105.694 182.622 105.254C182.465 104.81 182.221 104.454 181.892 104.185C181.562 103.917 181.147 103.782 180.646 103.782C180.141 103.782 179.722 103.917 179.389 104.185C179.059 104.454 178.814 104.81 178.653 105.254C178.495 105.694 178.417 106.178 178.417 106.704C178.417 107.234 178.495 107.719 178.653 108.16C178.814 108.6 179.059 108.953 179.389 109.218C179.722 109.483 180.141 109.615 180.646 109.615ZM187.885 99.7969V110.797H186.279V99.7969H187.885ZM193.133 110.958C192.467 110.958 191.873 110.788 191.35 110.448C190.831 110.104 190.423 109.615 190.126 108.981C189.832 108.344 189.685 107.58 189.685 106.688C189.685 105.796 189.834 105.034 190.131 104.4C190.432 103.766 190.844 103.281 191.366 102.944C191.889 102.608 192.482 102.439 193.144 102.439C193.656 102.439 194.068 102.525 194.38 102.697C194.695 102.866 194.938 103.062 195.11 103.288C195.285 103.514 195.422 103.712 195.518 103.884H195.615V99.7969H197.221V110.797H195.652V109.513H195.518C195.422 109.689 195.282 109.889 195.099 110.115C194.92 110.34 194.673 110.537 194.358 110.706C194.043 110.874 193.635 110.958 193.133 110.958ZM193.488 109.588C193.95 109.588 194.34 109.467 194.659 109.223C194.981 108.976 195.225 108.634 195.389 108.197C195.558 107.76 195.642 107.252 195.642 106.672C195.642 106.099 195.559 105.598 195.395 105.168C195.23 104.738 194.988 104.403 194.67 104.164C194.351 103.924 193.957 103.804 193.488 103.804C193.005 103.804 192.602 103.929 192.279 104.18C191.957 104.43 191.714 104.772 191.549 105.206C191.388 105.639 191.307 106.128 191.307 106.672C191.307 107.223 191.39 107.719 191.554 108.16C191.719 108.6 191.963 108.949 192.285 109.207C192.611 109.461 193.012 109.588 193.488 109.588Z" fill="#7C7E8C"/>
<rect x="218.57" y="100.797" width="33" height="8" rx="2" fill="#C7C8CE"/>
<path d="M266.503 110.952C265.707 110.952 265.005 110.815 264.394 110.542C263.788 110.268 263.312 109.891 262.968 109.41C262.624 108.929 262.454 108.381 262.458 107.767C262.454 107.286 262.552 106.844 262.752 106.441C262.955 106.034 263.231 105.696 263.579 105.426C263.926 105.152 264.315 104.978 264.744 104.904V104.838C264.178 104.701 263.725 104.397 263.384 103.928C263.044 103.458 262.876 102.918 262.879 102.307C262.876 101.727 263.029 101.209 263.34 100.754C263.654 100.295 264.085 99.9345 264.633 99.6718C265.18 99.4092 265.804 99.2779 266.503 99.2779C267.194 99.2779 267.812 99.411 268.356 99.6774C268.903 99.94 269.334 100.301 269.649 100.759C269.963 101.214 270.122 101.73 270.126 102.307C270.122 102.918 269.948 103.458 269.604 103.928C269.26 104.397 268.813 104.701 268.262 104.838V104.904C268.687 104.978 269.07 105.152 269.41 105.426C269.754 105.696 270.028 106.034 270.231 106.441C270.439 106.844 270.544 107.286 270.548 107.767C270.544 108.381 270.37 108.929 270.026 109.41C269.682 109.891 269.205 110.268 268.595 110.542C267.988 110.815 267.291 110.952 266.503 110.952ZM266.503 109.548C266.973 109.548 267.379 109.471 267.723 109.315C268.067 109.156 268.334 108.936 268.522 108.655C268.711 108.37 268.807 108.037 268.811 107.656C268.807 107.261 268.704 106.911 268.5 106.608C268.3 106.304 268.029 106.066 267.685 105.892C267.341 105.718 266.947 105.631 266.503 105.631C266.055 105.631 265.657 105.718 265.31 105.892C264.962 106.066 264.688 106.304 264.489 106.608C264.289 106.911 264.191 107.261 264.194 107.656C264.191 108.037 264.281 108.37 264.466 108.655C264.655 108.936 264.923 109.156 265.271 109.315C265.619 109.471 266.029 109.548 266.503 109.548ZM266.503 104.261C266.88 104.261 267.215 104.185 267.507 104.033C267.799 103.881 268.029 103.671 268.195 103.401C268.365 103.13 268.452 102.814 268.456 102.452C268.452 102.097 268.367 101.786 268.201 101.52C268.038 101.253 267.81 101.048 267.518 100.904C267.226 100.756 266.887 100.682 266.503 100.682C266.111 100.682 265.767 100.756 265.471 100.904C265.178 101.048 264.951 101.253 264.788 101.52C264.625 101.786 264.546 102.097 264.55 102.452C264.546 102.814 264.627 103.13 264.794 103.401C264.96 103.671 265.19 103.881 265.482 104.033C265.778 104.185 266.118 104.261 266.503 104.261ZM278.467 108.666V108.067C278.467 107.638 278.556 107.246 278.733 106.891C278.915 106.532 279.177 106.245 279.521 106.031C279.869 105.812 280.289 105.703 280.781 105.703C281.284 105.703 281.706 105.81 282.046 106.025C282.386 106.24 282.643 106.526 282.817 106.885C282.995 107.244 283.083 107.638 283.083 108.067V108.666C283.083 109.095 282.995 109.489 282.817 109.848C282.64 110.203 282.379 110.49 282.035 110.708C281.694 110.923 281.276 111.03 280.781 111.03C280.281 111.03 279.86 110.923 279.516 110.708C279.172 110.49 278.911 110.203 278.733 109.848C278.556 109.489 278.467 109.095 278.467 108.666ZM279.76 108.067V108.666C279.76 108.984 279.836 109.273 279.987 109.532C280.139 109.791 280.403 109.92 280.781 109.92C281.154 109.92 281.415 109.791 281.563 109.532C281.711 109.273 281.785 108.984 281.785 108.666V108.067C281.785 107.749 281.713 107.46 281.569 107.201C281.428 106.942 281.165 106.813 280.781 106.813C280.411 106.813 280.148 106.942 279.993 107.201C279.838 107.46 279.76 107.749 279.76 108.067ZM272.752 102.163V101.564C272.752 101.135 272.841 100.741 273.018 100.382C273.199 100.023 273.462 99.7366 273.806 99.522C274.154 99.3075 274.574 99.2002 275.066 99.2002C275.569 99.2002 275.99 99.3075 276.331 99.522C276.671 99.7366 276.928 100.023 277.102 100.382C277.276 100.741 277.363 101.135 277.363 101.564V102.163C277.363 102.592 277.274 102.986 277.096 103.345C276.923 103.7 276.664 103.987 276.32 104.205C275.979 104.42 275.561 104.527 275.066 104.527C274.563 104.527 274.139 104.42 273.795 104.205C273.455 103.987 273.196 103.7 273.018 103.345C272.841 102.986 272.752 102.592 272.752 102.163ZM274.05 101.564V102.163C274.05 102.481 274.124 102.77 274.272 103.029C274.424 103.288 274.688 103.417 275.066 103.417C275.436 103.417 275.695 103.288 275.842 103.029C275.994 102.77 276.07 102.481 276.07 102.163V101.564C276.07 101.246 275.998 100.957 275.854 100.698C275.709 100.439 275.447 100.31 275.066 100.31C274.696 100.31 274.433 100.439 274.278 100.698C274.126 100.957 274.05 101.246 274.05 101.564ZM273.279 110.797L281.092 99.4332H282.418L274.605 110.797H273.279Z" fill="#7C7E8C"/>
<path d="M172.068 140.687C172.011 140.178 171.774 139.784 171.359 139.505C170.944 139.222 170.421 139.081 169.791 139.081C169.339 139.081 168.949 139.152 168.62 139.295C168.29 139.435 168.034 139.628 167.852 139.875C167.673 140.119 167.583 140.396 167.583 140.708C167.583 140.969 167.644 141.195 167.766 141.385C167.891 141.575 168.054 141.734 168.255 141.863C168.459 141.988 168.677 142.094 168.91 142.18C169.143 142.262 169.366 142.33 169.581 142.384L170.655 142.663C171.006 142.749 171.366 142.865 171.735 143.012C172.104 143.159 172.446 143.352 172.761 143.592C173.076 143.832 173.33 144.129 173.524 144.484C173.72 144.838 173.819 145.263 173.819 145.757C173.819 146.38 173.658 146.933 173.336 147.417C173.017 147.9 172.553 148.281 171.944 148.561C171.339 148.84 170.607 148.979 169.748 148.979C168.924 148.979 168.212 148.849 167.61 148.587C167.008 148.326 166.538 147.955 166.197 147.476C165.857 146.992 165.669 146.419 165.633 145.757H167.298C167.331 146.154 167.46 146.486 167.685 146.75C167.914 147.012 168.206 147.207 168.561 147.336C168.919 147.461 169.311 147.524 169.737 147.524C170.206 147.524 170.623 147.451 170.988 147.304C171.357 147.153 171.647 146.946 171.859 146.681C172.07 146.412 172.175 146.099 172.175 145.741C172.175 145.415 172.082 145.148 171.896 144.94C171.714 144.733 171.465 144.561 171.15 144.425C170.838 144.289 170.485 144.169 170.091 144.065L168.792 143.71C167.911 143.471 167.213 143.118 166.697 142.652C166.185 142.187 165.929 141.571 165.929 140.805C165.929 140.171 166.101 139.618 166.444 139.145C166.788 138.672 167.254 138.305 167.841 138.044C168.428 137.779 169.091 137.646 169.828 137.646C170.573 137.646 171.23 137.777 171.799 138.039C172.372 138.3 172.824 138.66 173.153 139.118C173.482 139.573 173.654 140.096 173.669 140.687H172.068ZM179.229 148.963C178.416 148.963 177.716 148.79 177.129 148.442C176.545 148.091 176.094 147.599 175.775 146.965C175.46 146.328 175.303 145.581 175.303 144.726C175.303 143.881 175.46 143.136 175.775 142.491C176.094 141.847 176.538 141.344 177.107 140.982C177.68 140.62 178.35 140.439 179.116 140.439C179.582 140.439 180.033 140.516 180.47 140.67C180.907 140.824 181.299 141.066 181.646 141.396C181.993 141.725 182.267 142.153 182.468 142.679C182.668 143.202 182.769 143.838 182.769 144.586V145.155H176.21V143.952H181.195C181.195 143.53 181.109 143.155 180.937 142.83C180.765 142.5 180.523 142.241 180.212 142.051C179.904 141.861 179.542 141.766 179.127 141.766C178.676 141.766 178.282 141.877 177.945 142.099C177.612 142.318 177.354 142.604 177.172 142.958C176.993 143.309 176.903 143.691 176.903 144.103V145.042C176.903 145.594 177 146.063 177.193 146.45C177.39 146.836 177.664 147.132 178.015 147.336C178.366 147.536 178.776 147.637 179.245 147.637C179.549 147.637 179.827 147.594 180.078 147.508C180.328 147.418 180.545 147.286 180.728 147.11C180.91 146.935 181.05 146.718 181.146 146.46L182.667 146.734C182.545 147.182 182.326 147.574 182.011 147.911C181.7 148.244 181.308 148.503 180.835 148.689C180.366 148.872 179.831 148.963 179.229 148.963ZM186.156 137.797V148.797H184.55V137.797H186.156ZM189.923 137.797V148.797H188.317V137.797H189.923Z" fill="#7C7E8C"/>
<rect x="218.57" y="138.797" width="66.5" height="8" rx="2" fill="#F7324C"/>
<path d="M300.474 137.433V148.797H298.754V139.153H298.688L295.969 140.929V139.286L298.804 137.433H300.474ZM307.516 148.952C307.009 148.945 306.509 148.852 306.017 148.675C305.529 148.497 305.085 148.201 304.686 147.787C304.286 147.373 303.966 146.816 303.726 146.117C303.489 145.418 303.371 144.545 303.371 143.498C303.371 142.507 303.469 141.626 303.665 140.857C303.865 140.087 304.151 139.438 304.525 138.909C304.899 138.377 305.35 137.971 305.879 137.694C306.408 137.417 307.001 137.278 307.66 137.278C308.337 137.278 308.938 137.411 309.463 137.677C309.988 137.944 310.414 138.312 310.739 138.782C311.069 139.251 311.278 139.786 311.366 140.385H309.674C309.559 139.912 309.332 139.525 308.992 139.225C308.651 138.926 308.207 138.776 307.66 138.776C306.828 138.776 306.178 139.139 305.712 139.864C305.25 140.589 305.017 141.597 305.013 142.888H305.096C305.292 142.566 305.533 142.292 305.818 142.066C306.106 141.837 306.428 141.661 306.783 141.539C307.142 141.413 307.519 141.351 307.915 141.351C308.574 141.351 309.169 141.511 309.702 141.833C310.238 142.151 310.665 142.592 310.984 143.154C311.302 143.716 311.461 144.36 311.461 145.085C311.461 145.81 311.296 146.466 310.967 147.055C310.641 147.643 310.183 148.109 309.591 148.453C308.999 148.793 308.307 148.96 307.516 148.952ZM307.51 147.51C307.947 147.51 308.337 147.402 308.681 147.188C309.025 146.973 309.297 146.685 309.496 146.322C309.696 145.96 309.796 145.555 309.796 145.107C309.796 144.671 309.698 144.273 309.502 143.914C309.31 143.555 309.043 143.27 308.703 143.06C308.366 142.849 307.982 142.743 307.549 142.743C307.22 142.743 306.915 142.806 306.633 142.932C306.356 143.058 306.112 143.232 305.901 143.454C305.69 143.675 305.524 143.931 305.402 144.219C305.283 144.504 305.224 144.806 305.224 145.124C305.224 145.549 305.322 145.943 305.518 146.306C305.718 146.668 305.99 146.96 306.334 147.182C306.681 147.4 307.074 147.51 307.51 147.51ZM319.413 146.666V146.067C319.413 145.638 319.502 145.246 319.68 144.891C319.861 144.532 320.124 144.245 320.468 144.031C320.815 143.812 321.235 143.703 321.727 143.703C322.23 143.703 322.652 143.81 322.992 144.025C323.333 144.24 323.59 144.526 323.763 144.885C323.941 145.244 324.03 145.638 324.03 146.067V146.666C324.03 147.095 323.941 147.489 323.763 147.848C323.586 148.203 323.325 148.49 322.981 148.708C322.641 148.923 322.223 149.03 321.727 149.03C321.228 149.03 320.806 148.923 320.462 148.708C320.118 148.49 319.857 148.203 319.68 147.848C319.502 147.489 319.413 147.095 319.413 146.666ZM320.706 146.067V146.666C320.706 146.984 320.782 147.273 320.934 147.532C321.085 147.791 321.35 147.92 321.727 147.92C322.101 147.92 322.362 147.791 322.509 147.532C322.657 147.273 322.731 146.984 322.731 146.666V146.067C322.731 145.749 322.659 145.46 322.515 145.201C322.374 144.942 322.112 144.813 321.727 144.813C321.357 144.813 321.095 144.942 320.939 145.201C320.784 145.46 320.706 145.749 320.706 146.067ZM313.698 140.163V139.564C313.698 139.135 313.787 138.741 313.965 138.382C314.146 138.023 314.408 137.737 314.752 137.522C315.1 137.307 315.52 137.2 316.012 137.2C316.515 137.2 316.937 137.307 317.277 137.522C317.617 137.737 317.874 138.023 318.048 138.382C318.222 138.741 318.309 139.135 318.309 139.564V140.163C318.309 140.592 318.22 140.986 318.043 141.345C317.869 141.7 317.61 141.987 317.266 142.205C316.926 142.42 316.508 142.527 316.012 142.527C315.509 142.527 315.085 142.42 314.741 142.205C314.401 141.987 314.142 141.7 313.965 141.345C313.787 140.986 313.698 140.592 313.698 140.163ZM314.997 139.564V140.163C314.997 140.481 315.071 140.77 315.219 141.029C315.37 141.288 315.635 141.417 316.012 141.417C316.382 141.417 316.641 141.288 316.789 141.029C316.94 140.77 317.016 140.481 317.016 140.163V139.564C317.016 139.246 316.944 138.957 316.8 138.698C316.656 138.439 316.393 138.31 316.012 138.31C315.642 138.31 315.379 138.439 315.224 138.698C315.072 138.957 314.997 139.246 314.997 139.564ZM314.225 148.797L322.038 137.433H323.364L315.551 148.797H314.225Z" fill="#7C7E8C"/>
<rect y="44.7969" width="116.86" height="120" rx="58.43" fill="#EBF9F4"/>
<path d="M33.019 117.047L44.5769 94.1895V93.9956H31.209V90.5696H48.714V94.112L37.1948 117.047H33.019ZM61.8847 117.409C60.704 117.392 59.5404 117.176 58.3941 116.762C57.2564 116.349 56.2221 115.659 55.2913 114.694C54.3604 113.729 53.6149 112.431 53.0547 110.802C52.5031 109.174 52.2273 107.139 52.2273 104.7C52.2273 102.39 52.4557 100.339 52.9125 98.5464C53.3779 96.7537 54.0459 95.241 54.9164 94.0085C55.7869 92.7674 56.8384 91.8237 58.0709 91.1772C59.3034 90.5308 60.6867 90.2076 62.2209 90.2076C63.7981 90.2076 65.1987 90.5179 66.4226 91.1384C67.6465 91.759 68.6377 92.6166 69.3961 93.7112C70.1632 94.8058 70.6502 96.0512 70.857 97.4475H66.9139C66.6467 96.3443 66.1166 95.4436 65.3237 94.7455C64.5307 94.0473 63.4965 93.6983 62.2209 93.6983C60.2816 93.6983 58.769 94.5429 57.683 96.2322C56.6057 97.9215 56.0627 100.27 56.0541 103.278H56.248C56.7048 102.528 57.265 101.891 57.9287 101.365C58.6009 100.83 59.3508 100.421 60.1782 100.137C61.0142 99.8435 61.8934 99.697 62.8156 99.697C64.3498 99.697 65.7374 100.072 66.9785 100.822C68.2283 101.563 69.2237 102.589 69.965 103.899C70.7062 105.209 71.0768 106.708 71.0768 108.398C71.0768 110.087 70.6933 111.617 69.9262 112.987C69.1677 114.358 68.099 115.444 66.72 116.245C65.3409 117.038 63.7292 117.426 61.8847 117.409ZM61.8718 114.047C62.8888 114.047 63.7981 113.798 64.5997 113.298C65.4013 112.798 66.0347 112.125 66.5002 111.281C66.9656 110.436 67.1983 109.492 67.1983 108.45C67.1983 107.432 66.9699 106.506 66.5131 105.67C66.0649 104.834 65.4444 104.17 64.6514 103.679C63.8671 103.188 62.9707 102.942 61.9623 102.942C61.1952 102.942 60.4842 103.089 59.8291 103.382C59.1827 103.675 58.6139 104.08 58.1226 104.597C57.6313 105.114 57.2435 105.709 56.959 106.381C56.6832 107.045 56.5453 107.747 56.5453 108.488C56.5453 109.479 56.7737 110.397 57.2305 111.242C57.696 112.087 58.3294 112.768 59.131 113.285C59.9412 113.793 60.8548 114.047 61.8718 114.047Z" fill="#0FBA83"/>
<path d="M82.7732 108.615V108.001C82.7732 107.562 82.8641 107.161 83.0459 106.797C83.2315 106.429 83.5005 106.136 83.8527 105.916C84.2088 105.693 84.6387 105.581 85.1425 105.581C85.6577 105.581 86.0895 105.691 86.438 105.911C86.7865 106.13 87.0497 106.424 87.2277 106.791C87.4096 107.159 87.5005 107.562 87.5005 108.001V108.615C87.5005 109.054 87.4096 109.458 87.2277 109.825C87.0459 110.189 86.7789 110.482 86.4266 110.706C86.0781 110.926 85.6501 111.036 85.1425 111.036C84.6312 111.036 84.1993 110.926 83.8471 110.706C83.4948 110.482 83.2277 110.189 83.0459 109.825C82.8641 109.458 82.7732 109.054 82.7732 108.615ZM84.0971 108.001V108.615C84.0971 108.941 84.1747 109.236 84.33 109.501C84.4853 109.767 84.7562 109.899 85.1425 109.899C85.5251 109.899 85.7921 109.767 85.9437 109.501C86.0952 109.236 86.1709 108.941 86.1709 108.615V108.001C86.1709 107.676 86.0971 107.38 85.9493 107.115C85.8054 106.85 85.5365 106.717 85.1425 106.717C84.7637 106.717 84.4948 106.85 84.3357 107.115C84.1766 107.38 84.0971 107.676 84.0971 108.001ZM76.9209 101.956V101.342C76.9209 100.903 77.0118 100.5 77.1937 100.132C77.3793 99.7647 77.6482 99.4711 78.0005 99.2514C78.3565 99.0317 78.7865 98.9219 79.2902 98.9219C79.8054 98.9219 80.2372 99.0317 80.5857 99.2514C80.9342 99.4711 81.1974 99.7647 81.3755 100.132C81.5535 100.5 81.6425 100.903 81.6425 101.342V101.956C81.6425 102.395 81.5516 102.799 81.3698 103.166C81.1918 103.53 80.9266 103.823 80.5743 104.047C80.2259 104.267 79.7978 104.376 79.2902 104.376C78.7751 104.376 78.3414 104.267 77.9891 104.047C77.6406 103.823 77.3755 103.53 77.1937 103.166C77.0118 102.799 76.9209 102.395 76.9209 101.956ZM78.2505 101.342V101.956C78.2505 102.282 78.3262 102.577 78.4777 102.842C78.633 103.107 78.9039 103.24 79.2902 103.24C79.669 103.24 79.9342 103.107 80.0857 102.842C80.241 102.577 80.3187 102.282 80.3187 101.956V101.342C80.3187 101.017 80.2448 100.721 80.0971 100.456C79.9493 100.191 79.6804 100.058 79.2902 100.058C78.9115 100.058 78.6425 100.191 78.4834 100.456C78.3281 100.721 78.2505 101.017 78.2505 101.342ZM77.4607 110.797L85.4607 99.1605H86.8187L78.8187 110.797H77.4607Z" fill="#0FBA83"/>
<defs>
<clipPath id="clip0_1_768">
<rect width="20" height="20" fill="white" transform="translate(171.04 0.796875)"/>
</clipPath>
</defs>
</svg>
